<svg width="667" height="430" viewBox="0 0 667 430" fill="none" xmlns="http://www.w3.org/2000/svg">
<path d="M6.47109 161.893C2.94688 86.0958 63.4487 22.7157 139.328 22.7157H304.939L485.783 11.3695C568.216 6.1977 626.684 90.3957 593.042 165.829L591.448 169.404C578.402 198.654 579.845 232.333 595.345 260.36V260.36C624.949 313.893 601.13 381.265 544.457 404.295L528.91 410.613C516.072 415.829 502.41 418.723 488.559 419.159L166.762 429.278H145.863C74.8109 429.278 16.3066 373.431 13.0066 302.455L6.47109 161.893Z" fill="#20293A"/>
<path d="M379.926 183.727H279.784C279.074 175.441 277.18 167.925 274.102 161.178C271.143 154.43 267 148.63 261.673 143.777C256.465 138.805 250.132 135.018 242.675 132.413C235.217 129.691 226.754 128.33 217.284 128.33C200.712 128.33 186.685 132.354 175.203 140.403C163.839 148.453 155.198 159.994 149.28 175.027C143.48 190.06 140.58 208.112 140.58 229.182C140.58 251.436 143.539 270.079 149.457 285.112C155.494 300.027 164.195 311.272 175.558 318.848C186.922 326.305 200.594 330.034 216.574 330.034C225.688 330.034 233.856 328.91 241.077 326.661C248.297 324.293 254.571 320.92 259.898 316.54C265.224 312.16 269.545 306.893 272.859 300.737C276.292 294.464 278.6 287.42 279.784 279.608L379.926 280.318C378.742 295.706 374.422 311.391 366.964 327.371C359.507 343.232 348.913 357.911 335.182 371.405C321.569 384.781 304.701 395.553 284.578 403.72C264.455 411.888 241.077 415.972 214.443 415.972C181.062 415.972 151.115 408.81 124.599 394.487C98.2027 380.164 77.3101 359.094 61.9219 331.277C46.652 303.46 39.017 269.428 39.017 229.182C39.017 188.699 46.8295 154.608 62.4545 126.909C78.0795 99.0918 99.1496 78.0809 125.665 63.8764C152.18 49.5535 181.773 42.392 214.443 42.392C237.407 42.392 258.536 45.5289 277.831 51.8025C297.125 58.0762 314.053 67.25 328.612 79.3238C343.172 91.2793 354.891 106.017 363.768 123.536C372.646 141.054 378.032 161.118 379.926 183.727Z" fill="white"/>
<path d="M510.76 222.13C531.667 227.03 547.837 237.157 559.27 252.51C571.03 267.537 576.91 285.013 576.91 304.94C576.91 335.32 566.783 358.84 546.53 375.5C526.603 391.833 497.857 400 460.29 400H278.5V53.08H455.39C490.67 53.08 518.437 60.7567 538.69 76.11C558.943 91.4633 569.07 113.84 569.07 143.24C569.07 163.493 563.68 180.643 552.9 194.69C542.447 208.41 528.4 217.557 510.76 222.13ZM387.28 188.32H429.42C439.22 188.32 446.407 186.36 450.98 182.44C455.88 178.52 458.33 172.477 458.33 164.31C458.33 155.817 455.88 149.61 450.98 145.69C446.407 141.443 439.22 139.32 429.42 139.32H387.28V188.32ZM436.77 312.78C446.57 312.78 453.757 310.983 458.33 307.39C463.23 303.47 465.68 297.263 465.68 288.77C465.68 272.11 456.043 263.78 436.77 263.78H387.28V312.78H436.77Z" fill="white"/>
<path d="M265 245.645C265 276.769 239.928 302 209 302C178.072 302 153 276.769 153 245.645C153 214.52 178.072 156 209 156C239.928 156 265 214.52 265 245.645Z" fill="white"/>
</svg>
